<svg width="519" height="333" viewBox="0 0 519 333" fill="none" xmlns="http://www.w3.org/2000/svg">
<circle cx="259.5" cy="166.5" r="151.5" fill="#080808"/>
<path d="M152.443 183V148.091H165.807C168.33 148.091 170.426 148.489 172.097 149.284C173.778 150.068 175.034 151.142 175.864 152.506C176.705 153.869 177.125 155.415 177.125 157.142C177.125 158.562 176.852 159.778 176.307 160.79C175.761 161.79 175.028 162.602 174.108 163.227C173.188 163.852 172.159 164.301 171.023 164.574V164.915C172.261 164.983 173.449 165.364 174.585 166.057C175.733 166.739 176.67 167.705 177.398 168.955C178.125 170.205 178.489 171.716 178.489 173.489C178.489 175.295 178.051 176.92 177.176 178.364C176.301 179.795 174.983 180.926 173.222 181.756C171.46 182.585 169.244 183 166.574 183H152.443ZM158.767 177.716H165.568C167.864 177.716 169.517 177.278 170.528 176.403C171.551 175.517 172.062 174.381 172.062 172.994C172.062 171.96 171.807 171.028 171.295 170.199C170.784 169.358 170.057 168.699 169.114 168.222C168.17 167.733 167.045 167.489 165.739 167.489H158.767V177.716ZM158.767 162.938H165.023C166.114 162.938 167.097 162.739 167.972 162.341C168.847 161.932 169.534 161.358 170.034 160.619C170.545 159.869 170.801 158.983 170.801 157.96C170.801 156.608 170.324 155.494 169.369 154.619C168.426 153.744 167.023 153.307 165.159 153.307H158.767V162.938ZM190.314 148.091V183H183.99V148.091H190.314ZM197.162 183V148.091H203.486V177.699H218.861V183H197.162ZM224.349 183V148.091H230.673V177.699H246.048V183H224.349ZM280.058 159.869H273.683C273.501 158.824 273.166 157.898 272.678 157.091C272.189 156.273 271.581 155.58 270.854 155.011C270.126 154.443 269.297 154.017 268.365 153.733C267.445 153.438 266.45 153.29 265.382 153.29C263.484 153.29 261.803 153.767 260.337 154.722C258.871 155.665 257.723 157.051 256.893 158.881C256.064 160.699 255.649 162.92 255.649 165.545C255.649 168.216 256.064 170.466 256.893 172.295C257.734 174.114 258.882 175.489 260.337 176.42C261.803 177.341 263.479 177.801 265.365 177.801C266.411 177.801 267.388 177.665 268.297 177.392C269.217 177.108 270.041 176.693 270.768 176.148C271.507 175.602 272.126 174.932 272.626 174.136C273.138 173.341 273.49 172.432 273.683 171.409L280.058 171.443C279.82 173.102 279.303 174.659 278.507 176.114C277.723 177.568 276.695 178.852 275.422 179.966C274.149 181.068 272.661 181.932 270.956 182.557C269.251 183.17 267.359 183.477 265.28 183.477C262.212 183.477 259.473 182.767 257.064 181.347C254.655 179.926 252.757 177.875 251.371 175.193C249.984 172.511 249.291 169.295 249.291 165.545C249.291 161.784 249.99 158.568 251.388 155.898C252.786 153.216 254.689 151.165 257.098 149.744C259.507 148.324 262.234 147.614 265.28 147.614C267.223 147.614 269.03 147.886 270.7 148.432C272.371 148.977 273.859 149.778 275.166 150.835C276.473 151.881 277.547 153.165 278.388 154.688C279.24 156.199 279.797 157.926 280.058 159.869ZM317.043 165.545C317.043 169.307 316.338 172.528 314.929 175.21C313.531 177.881 311.622 179.926 309.202 181.347C306.793 182.767 304.06 183.477 301.003 183.477C297.946 183.477 295.207 182.767 292.787 181.347C290.378 179.915 288.469 177.864 287.06 175.193C285.662 172.511 284.963 169.295 284.963 165.545C284.963 161.784 285.662 158.568 287.06 155.898C288.469 153.216 290.378 151.165 292.787 149.744C295.207 148.324 297.946 147.614 301.003 147.614C304.06 147.614 306.793 148.324 309.202 149.744C311.622 151.165 313.531 153.216 314.929 155.898C316.338 158.568 317.043 161.784 317.043 165.545ZM310.685 165.545C310.685 162.898 310.27 160.665 309.44 158.847C308.622 157.017 307.486 155.636 306.031 154.705C304.577 153.761 302.901 153.29 301.003 153.29C299.105 153.29 297.429 153.761 295.974 154.705C294.52 155.636 293.378 157.017 292.548 158.847C291.73 160.665 291.321 162.898 291.321 165.545C291.321 168.193 291.73 170.432 292.548 172.261C293.378 174.08 294.52 175.46 295.974 176.403C297.429 177.335 299.105 177.801 301.003 177.801C302.901 177.801 304.577 177.335 306.031 176.403C307.486 175.46 308.622 174.08 309.44 172.261C310.27 170.432 310.685 168.193 310.685 165.545ZM329.345 148.091V183H323.021V148.091H329.345ZM364.881 148.091V183H359.256L342.807 159.222H342.517V183H336.193V148.091H341.852L358.284 171.886H358.591V148.091H364.881Z" fill="white"/>
</svg>
