<svg width="519" height="333" viewBox="0 0 519 333" fill="none" xmlns="http://www.w3.org/2000/svg">
<circle cx="259.5" cy="166.5" r="151.5" fill="#080808"/>
<path d="M191.523 148.812H176.949V137.037H199.743L211.562 148.812V160.809L205.653 166.718L211.562 172.628V184.225L199.743 196H176.949V184.225H191.523V171.65H176.949V161.386H191.523V148.812ZM154.199 137.037H173.838V196H154.199V137.037ZM219.783 183.425H225.692V149.567H219.783V137.037H251.242V149.567H245.332V183.425H251.242V196H219.783V183.425ZM260.75 196V137.037H280.39V196H260.75ZM283.5 196V184.225H293.231V176.76H311.049V196H283.5ZM317.092 196V137.037H336.732V196H317.092ZM339.842 196V184.225H349.573V176.76H367.391V196H339.842Z" fill="white"/>
</svg>
