<svg width="48" height="48" viewBox="0 0 48 48" fill="none" xmlns="http://www.w3.org/2000/svg">
<g clip-path="url(#clip0_1309_561)">
<path d="M0 12C0 5.37258 5.37258 0 12 0H36C42.6274 0 48 5.37258 48 12V36C48 42.6274 42.6274 48 36 48H12C5.37258 48 0 42.6274 0 36V12Z" fill="url(#paint0_linear_1309_561)"/>
<path fill-rule="evenodd" clip-rule="evenodd" d="M21.1286 22.4819H13C13 17.7735 14.4129 12.8182 16.9308 9.58562C19.4161 10.9186 21.5199 12.8739 23.0352 15.244C22.3612 16.3844 21.1286 18.9523 21.1286 22.4819ZM23.1593 32.8191C22.4947 31.7124 21.2151 29.1144 21.2151 25.5181H13.0865C13.0865 30.2994 14.5435 35.3352 17.135 38.5632C19.5994 37.1961 21.6765 35.2121 23.1593 32.8191ZM17.7133 39.2327C22.5759 36.4669 25.9709 31.4062 26.4355 25.5181H34.2727C34.2727 33.412 30.0418 42 23.5499 42C21.2737 42 19.3073 40.9442 17.7133 39.2327ZM26.413 22.4819C25.8622 16.6192 22.4033 11.6053 17.4985 8.90735C19.1148 7.11358 21.1257 6 23.4634 6C29.9553 6 34.1862 14.588 34.1862 22.4819H26.413Z" fill="white"/>
</g>
<defs>
<linearGradient id="paint0_linear_1309_561" x1="48" y1="48" x2="-2.71797e-05" y2="2.71797e-05" gradientUnits="userSpaceOnUse">
<stop offset="0.104167" stop-color="#122A5D"/>
<stop offset="0.760417" stop-color="#528FCB"/>
</linearGradient>
<clipPath id="clip0_1309_561">
<rect width="48" height="48" fill="white"/>
</clipPath>
</defs>
</svg>
