<svg width="260" height="260" viewBox="0 0 260 260" fill="none" xmlns="http://www.w3.org/2000/svg">
<g clip-path="url(#clip0_634_6225)">
<path d="M0 65C0 29.1015 29.1015 0 65 0H195C230.898 0 260 29.1015 260 65V195C260 230.898 230.898 260 195 260H65C29.1015 260 0 230.898 0 195V65Z" fill="url(#paint0_linear_634_6225)"/>
</g>
<path fill-rule="evenodd" clip-rule="evenodd" d="M113.935 149.078C95.3147 181.212 66.1169 203.468 33.2538 214C25.9769 180.377 30.7224 144.056 49.3427 111.922C67.9533 79.8049 97.1303 57.5555 129.973 47.0164C129.974 47.0109 129.975 47.0056 129.976 47C129.984 47.0025 129.992 47.005 130 47.0078C130.008 47.005 130.016 47.0025 130.024 47C130.025 47.0056 130.026 47.0109 130.028 47.0164C162.87 57.5555 192.047 79.8049 210.657 111.922C229.278 144.056 234.023 180.377 226.746 214C193.883 203.468 164.685 181.212 146.065 149.078C138.405 135.858 133.093 121.93 130 107.773C126.907 121.93 121.595 135.858 113.935 149.078Z" fill="#F2F2F2"/>
<defs>
<linearGradient id="paint0_linear_634_6225" x1="260" y1="260" x2="0" y2="0" gradientUnits="userSpaceOnUse">
<stop offset="1" stop-color="#E01063"/>
</linearGradient>
<clipPath id="clip0_634_6225">
<rect width="260" height="260" fill="white"/>
</clipPath>
</defs>
</svg>
