<svg width="260" height="252" viewBox="0 0 260 252" fill="none" xmlns="http://www.w3.org/2000/svg">
<g clip-path="url(#clip0_632_6110)">
<path d="M0 63C0 28.2061 29.1015 0 65 0H195C230.898 0 260 28.2061 260 63V189C260 223.794 230.898 252 195 252H65C29.1015 252 0 223.794 0 189V63Z" fill="url(#paint0_linear_632_6110)"/>
</g>
<path d="M62.5229 108.812H47.9487V97.0366H70.7432L82.5625 108.812V120.809L76.6528 126.718L82.5625 132.628V144.225L70.7432 156H47.9487V144.225H62.5229V131.65H47.9487V121.386H62.5229V108.812ZM25.1987 97.0366H44.8384V156H25.1987V97.0366ZM90.7827 143.425H96.6924V109.567H90.7827V97.0366H122.242V109.567H116.332V143.425H122.242V156H90.7827V143.425ZM131.75 156V97.0366H151.39V156H131.75ZM154.5 156V144.225H164.231V136.76H182.049V156H154.5ZM188.092 156V97.0366H207.732V156H188.092ZM210.842 156V144.225H220.573V136.76H238.391V156H210.842Z" fill="white"/>
<defs>
<linearGradient id="paint0_linear_632_6110" x1="260" y1="252" x2="8.12302" y2="-7.87308" gradientUnits="userSpaceOnUse">
<stop stop-color="#0C0700"/>
<stop offset="1" stop-color="#1D1C1B"/>
</linearGradient>
<clipPath id="clip0_632_6110">
<rect width="260" height="252" fill="white"/>
</clipPath>
</defs>
</svg>
