<svg width="260" height="260" viewBox="0 0 260 260" fill="none" xmlns="http://www.w3.org/2000/svg">
<g clip-path="url(#clip0_634_6210)">
<path d="M0 65C0 29.1015 29.1015 0 65 0H195C230.898 0 260 29.1015 260 65V195C260 230.898 230.898 260 195 260H65C29.1015 260 0 230.898 0 195V65Z" fill="url(#paint0_linear_634_6210)"/>
</g>
<path d="M202.621 111.186C205.638 91.011 190.283 80.1664 169.286 72.9319L176.098 45.6035L159.467 41.4583L152.837 68.0672C148.465 66.9764 143.975 65.9486 139.512 64.9297L146.191 38.1452L129.571 34L122.756 61.3195C119.138 60.4955 115.585 59.6812 112.137 58.8231L112.156 58.7371L89.2229 53.0084L84.799 70.7763C84.799 70.7763 97.1373 73.6055 96.8773 73.7796C103.612 75.461 104.829 79.9204 104.627 83.455L96.8684 114.588C97.3321 114.706 97.9336 114.877 98.5973 115.144C98.0425 115.006 97.4521 114.855 96.8395 114.709L85.9642 158.322C85.1412 160.369 83.0522 163.44 78.3439 162.274C78.5105 162.516 66.2567 159.257 66.2567 159.257L58 178.299L79.6417 183.696C83.6678 184.706 87.6132 185.762 91.4985 186.756L84.6167 214.398L101.228 218.543L108.043 191.195C112.581 192.427 116.985 193.564 121.296 194.635L114.504 221.855L131.135 226L138.016 198.41C166.374 203.779 187.698 201.614 196.673 175.956C203.905 155.298 196.313 143.383 181.394 135.612C192.26 133.106 200.445 125.956 202.627 111.188L202.622 111.184L202.621 111.186ZM164.625 164.484C159.485 185.141 124.715 173.974 113.442 171.174L122.574 134.554C133.846 137.369 169.996 142.94 164.625 164.484H164.625ZM169.768 110.886C165.08 129.677 136.14 120.13 126.752 117.79L135.032 84.5769C144.419 86.9177 174.652 91.2867 169.769 110.886H169.768Z" fill="white"/>
<defs>
<linearGradient id="paint0_linear_634_6210" x1="260" y1="260" x2="0" y2="0" gradientUnits="userSpaceOnUse">
<stop offset="1" stop-color="#F7931A"/>
</linearGradient>
<clipPath id="clip0_634_6210">
<rect width="260" height="260" fill="white"/>
</clipPath>
</defs>
</svg>
