<svg width="260" height="260" viewBox="0 0 260 260" fill="none" xmlns="http://www.w3.org/2000/svg">
<g clip-path="url(#clip0_634_6190)">
<path d="M0 65C0 29.1015 29.1015 0 65 0H195C230.898 0 260 29.1015 260 65V195C260 230.898 230.898 260 195 260H65C29.1015 260 0 230.898 0 195V65Z" fill="url(#paint0_linear_634_6190)"/>
</g>
<path d="M132.709 140.056H186.476C187.622 140.056 188.163 140.056 188.246 138.547C188.685 133.054 188.685 127.53 188.246 122.031C188.246 120.963 187.717 120.522 186.565 120.522H79.5602C78.2358 120.522 77.8792 120.963 77.8792 122.21V138.016C77.8792 140.056 77.8792 140.056 79.9996 140.056H132.709ZM182.241 102.05C182.394 101.647 182.394 101.206 182.241 100.809C181.344 98.8463 180.28 96.9729 179.045 95.2145C177.186 92.2094 174.995 89.4407 172.499 86.9535C171.321 85.4509 169.959 84.1018 168.43 82.9572C160.777 76.4162 151.678 71.7869 141.897 69.4595C136.963 68.3469 131.92 67.8162 126.864 67.861H79.3756C78.0511 67.861 77.8728 68.3917 77.8728 69.549V101.071C77.8728 102.401 77.8728 102.759 79.5538 102.759H181.605C181.605 102.759 182.49 102.58 182.668 102.05H182.235H182.241ZM182.241 158.528C180.739 158.362 179.223 158.362 177.721 158.528H79.6494C78.3249 158.528 77.8792 158.528 77.8792 160.305V191.125C77.8792 192.544 77.8792 192.902 79.6494 192.902H124.928C127.093 193.068 129.258 192.915 131.378 192.461C137.95 191.988 144.412 190.556 150.576 188.196C152.817 187.416 154.982 186.399 157.026 185.178H157.644C168.259 179.635 176.88 170.926 182.318 160.235C182.318 160.235 182.935 158.892 182.241 158.541V158.528ZM60.1077 208.881V208.35V187.659V180.645V159.775C60.1077 158.617 60.1077 158.445 58.6941 158.445H39.5027C38.4394 158.445 38 158.445 38 157.025V140.152H58.5159C59.662 140.152 60.1077 140.152 60.1077 138.643V121.948C60.1077 120.88 60.1077 120.618 58.6941 120.618H39.5027C38.4394 120.618 38 120.618 38 119.198V103.571C38 102.593 38 102.331 39.4136 102.331H58.4267C59.7511 102.331 60.1077 102.331 60.1077 100.643V52.7775C60.1077 51.3581 60.1077 51 61.8779 51H128.201C133.015 51.1918 137.797 51.7225 142.528 52.5985C152.276 54.408 161.643 57.9055 170.207 62.8992C175.887 66.2561 181.114 70.3099 185.769 74.9775C189.271 78.6285 192.429 82.58 195.231 86.7872C198.014 91.052 200.325 95.611 202.14 100.374C202.362 101.615 203.547 102.453 204.782 102.242H220.611C222.643 102.242 222.643 102.242 222.732 104.198V118.764C222.732 120.183 222.203 120.541 220.783 120.541H208.577C207.342 120.541 206.985 120.541 207.074 122.14C207.558 127.549 207.558 132.978 207.074 138.387C207.074 139.896 207.074 140.075 208.762 140.075H222.725C223.343 140.874 222.725 141.673 222.725 142.479C222.815 143.508 222.815 144.551 222.725 145.58V156.328C222.725 157.837 222.286 158.285 220.955 158.285H204.241C203.076 158.061 201.942 158.809 201.675 159.973C197.695 170.363 191.328 179.679 183.101 187.148C180.096 189.865 176.937 192.423 173.639 194.782C170.099 196.828 166.654 198.957 163.024 200.645C156.345 203.663 149.341 205.888 142.152 207.301C135.326 208.529 128.405 209.085 121.458 208.989H60.0822V208.9L60.1077 208.881Z" fill="#FEFEFD"/>
<defs>
<linearGradient id="paint0_linear_634_6190" x1="260" y1="260" x2="0" y2="0" gradientUnits="userSpaceOnUse">
<stop offset="1" stop-color="#F5AC37"/>
</linearGradient>
<clipPath id="clip0_634_6190">
<rect width="260" height="260" fill="white"/>
</clipPath>
</defs>
</svg>
