<svg width="48" height="48" viewBox="0 0 48 48" fill="none" xmlns="http://www.w3.org/2000/svg">
<g clip-path="url(#clip0_5228_6852)">
<path d="M0 12C0 5.37258 5.37258 0 12 0H36C42.6274 0 48 5.37258 48 12V36C48 42.6274 42.6274 48 36 48H12C5.37258 48 0 42.6274 0 36V12Z" fill="url(#paint0_linear_5228_6852)"/>
<path d="M32.8972 8C32.2544 8 31.7402 8.21563 31.3117 8.60378C30.8832 9.03504 30.6689 9.55256 30.6689 10.2426V19.5579V22.965C30.6689 22.965 30.6689 24.3019 30.6689 25.7251H30.626C30.626 25.7682 30.626 25.8113 30.6689 25.8544C30.6689 26.2426 30.6689 26.6307 30.6689 27.0189C30.6689 29.9515 30.5832 31.8491 28.055 34.2642C27.755 34.5229 27.4122 34.7386 27.0694 34.9542C25.8695 35.6873 24.5839 36.0323 23.127 36.0323C21.6701 36.0323 20.3417 35.6873 19.1847 34.9542C17.9848 34.221 17.085 33.2291 16.3993 31.9785C15.7137 30.7278 15.3709 29.3046 15.3709 27.752C15.3709 26.1995 15.7137 24.7763 16.3993 23.5256C17.085 22.2749 18.0276 21.283 19.1847 20.593C20.256 19.9461 21.4129 19.6011 22.6556 19.5148L21.113 21.0674C20.2988 21.8868 20.2988 23.2669 21.113 24.1294C21.9271 24.9488 23.2984 24.9488 24.1555 24.1294L29.2119 19.0405C30.0261 18.221 30.0261 16.8409 29.2119 15.9784L24.1126 10.8895C23.2984 10.0701 21.9271 10.0701 21.0701 10.8895C20.256 11.7089 20.256 13.0889 21.0701 13.9515L22.6985 15.5903C22.5271 15.5903 22.3985 15.5903 22.2271 15.5903C20.1274 15.5903 18.2419 16.1078 16.5279 17.186C14.8138 18.2641 13.4854 19.6873 12.4998 21.5849C11.4714 23.3962 11 25.4663 11 27.752C11 30.0377 11.5142 32.1078 12.5855 34.0054C13.6568 35.8598 15.0709 37.3261 16.9564 38.4043C18.799 39.4825 20.8559 40 23.0842 40C25.3124 40 27.3693 39.4825 29.1691 38.4043C31.0117 37.3261 32.4258 35.8598 33.4971 34.0054C34.5684 32.1509 35.0826 30.0809 35.0826 27.752V10.2426C35.0826 9.55256 34.8684 9.03504 34.4827 8.60378C34.0971 8.21563 33.54 8 32.8972 8Z" fill="white"/>
</g>
<defs>
<linearGradient id="paint0_linear_5228_6852" x1="48" y1="48" x2="-2.62577e-05" y2="2.62577e-05" gradientUnits="userSpaceOnUse">
<stop/>
<stop offset="1" stop-color="#3F3F3F"/>
</linearGradient>
<clipPath id="clip0_5228_6852">
<rect width="48" height="48" fill="white"/>
</clipPath>
</defs>
</svg>
