<svg width="260" height="260" viewBox="0 0 260 260" fill="none" xmlns="http://www.w3.org/2000/svg">
<path d="M0 64.9C0 29.0567 29.0567 0 64.9 0H194.7C230.543 0 259.6 29.0567 259.6 64.9V194.7C259.6 230.543 230.543 259.6 194.7 259.6H64.9C29.0567 259.6 0 230.543 0 194.7V64.9Z" fill="url(#paint0_linear_633_6153)"/>
<g clip-path="url(#clip0_633_6153)">
<path d="M129.8 259.6C201.487 259.6 259.6 201.487 259.6 129.8C259.6 58.1134 201.487 0 129.8 0C58.1134 0 0 58.1134 0 129.8C0 201.487 58.1134 259.6 129.8 259.6Z" fill="#3D2A76"/>
<path d="M187.1 162H177.9L177.3 160.8C177.3 160.8 172.3 149.9 159.9 147.1C171.8 143.6 179.9 136 183.9 127.2H193.1C194.913 123.245 195.867 118.951 195.9 114.6C195.934 110.365 195.498 106.139 194.6 102C190.7 84.5 177.8 72.2 152.4 69.8H152.2L149.5 69.6H70.6V127.3H61.4V162H70.6V190.8H105.4V162H131.7C143.1 162 146.7 168.7 154 185.3C154.8 186.967 155.6 188.767 156.4 190.7H200.3C195.7 179.4 189.1 166 187.1 162ZM105.4 102H140.6C147.8 102 154.5 107.4 154.5 114.6C154.5 121.8 147.8 127.2 140.6 127.2H105.4V102Z" fill="#EA328A"/>
<path d="M155.4 63.1V55.4H163.8V21.4H134V55.3H125.6V62.3H142.8C147.011 62.3546 151.216 62.6216 155.4 63.1Z" fill="#EA328A"/>
<path d="M113.3 62.4V55.4H121.7V41.1H91.9V55.3H83.5V62.4H113.3Z" fill="#EA328A"/>
<path d="M112.4 120.2H123.9V109H112.4V120.2Z" fill="#EA328A"/>
<path d="M150 193.6L148.9 191.2C140.1 171.3 138.4 169.1 131.6 169.1H112.4V197.9H96.8V204.6H126.6V179.3H138.2V227.1H168V197.8H151.8L150 193.6Z" fill="#EA328A"/>
</g>
<defs>
<linearGradient id="paint0_linear_633_6153" x1="259.6" y1="259.6" x2="0" y2="0" gradientUnits="userSpaceOnUse">
<stop stop-color="#3D2A76"/>
</linearGradient>
<clipPath id="clip0_633_6153">
<rect width="259.6" height="259.6" fill="white"/>
</clipPath>
</defs>
</svg>
