<svg width="48" height="48" viewBox="0 0 48 48" fill="none" xmlns="http://www.w3.org/2000/svg">
<g clip-path="url(#clip0_5751_12084)">
<path d="M0 12C0 5.37258 5.37258 0 12 0H36C42.6274 0 48 5.37258 48 12V36C48 42.6274 42.6274 48 36 48H12C5.37258 48 0 42.6274 0 36V12Z" fill="url(#paint0_linear_5751_12084)"/>
<path d="M42 32.9548C42.0016 31.1557 41.1851 29.4295 39.7296 28.1551C38.274 26.8807 36.2988 26.1625 34.2369 26.1577H25.6295C25.5753 25.4578 25.5413 24.7421 25.5413 24C25.5413 23.2579 25.5071 22.5458 25.4589 21.8423H34.2369C36.2808 21.8137 38.2299 21.0851 39.6636 19.8136C41.0976 18.5422 41.901 16.8299 41.901 15.0461C41.901 13.2623 41.0976 11.55 39.6636 10.2786C38.2299 9.00724 36.2808 8.27862 34.2369 8.25H13.6649C11.621 8.27862 9.67188 9.00721 8.23807 10.2786C6.80426 11.55 6.00067 13.2623 6.00067 15.0461C6.00067 16.8299 6.80426 18.5422 8.23807 19.8136C9.67188 21.0851 11.621 21.8137 13.6649 21.8423L21.75 22.0312C22.3125 22.0312 22.3605 23.2579 22.3605 24C22.3605 24.7421 22.3947 25.4542 22.4428 26.1577H13.6649C11.621 26.1863 9.67188 26.9149 8.23807 28.1864C6.80426 29.4578 6.00067 31.1701 6.00067 32.9539C6.00067 34.7377 6.80426 36.4499 8.23807 37.7214C9.67188 38.9929 11.621 39.7214 13.6649 39.75H34.2369C36.2983 39.7453 38.2736 39.0273 39.7289 37.7534C41.1844 36.4794 42.0012 34.7537 42 32.9548ZM38.8194 15.0452C38.8199 16.1071 38.3377 17.1257 37.4787 17.8776C36.6196 18.6296 35.4537 19.0535 34.2369 19.0563H25.1221C24.7918 17.0679 24.1627 15.1261 23.251 13.2812C22.8489 12.4819 22.3344 11.7294 21.7188 11.0412L34.2369 11.0413C35.4523 11.044 36.6169 11.4669 37.4757 12.2174C38.3348 12.9678 38.8179 13.9847 38.8194 15.0452ZM13.6649 19.0563C12.4458 19.0563 11.2767 18.6337 10.4147 17.8815C9.55266 17.1292 9.06839 16.109 9.06839 15.0452C9.06839 13.9815 9.55268 12.9613 10.4147 12.2091C11.2767 11.4568 12.4458 11.0342 13.6649 11.0342H15.7285C17.5515 11.0342 19.2782 12.2942 20.353 14.4065C21.089 15.8948 21.6123 17.4565 21.9114 19.0563H13.6649ZM9.08243 32.9548C9.08189 31.893 9.56406 30.8744 10.4232 30.1222C11.2823 29.3703 12.4481 28.9466 13.6649 28.9437H22.7796C23.1099 30.932 23.739 32.8738 24.6507 34.7188C25.0528 35.5182 25.5676 36.2706 26.183 36.9586H13.6649C12.4495 36.9559 11.2849 36.5332 10.426 35.7826C9.56712 35.0322 9.08403 34.0154 9.08243 32.9548ZM27.5607 33.5935C26.8249 32.1052 26.3016 30.5434 26.0025 28.9437H34.2369C35.4559 28.9437 36.625 29.3663 37.4872 30.1187C38.3492 30.8708 38.8334 31.891 38.8334 32.9548C38.8334 34.0186 38.3492 35.0387 37.4872 35.7909C36.625 36.5431 35.4559 36.9659 34.2369 36.9659H32.1734C30.3583 36.9659 28.6317 35.7058 27.5607 33.5935Z" fill="white"/>
<path d="M42 15.0452C42.0016 16.8444 41.1851 18.5706 39.7295 19.8449C38.274 21.1193 36.2985 21.8375 34.2369 21.8423H25.6292C25.575 22.5422 25.5413 23.2579 25.5413 24C25.5413 24.7421 25.5068 25.4542 25.4587 26.1577H34.2369C36.2808 26.1863 38.2299 26.9149 39.6636 28.1864C41.0975 29.4578 41.901 31.1701 41.901 32.9539C41.901 34.7377 41.0975 36.4499 39.6636 37.7214C38.2299 38.9929 36.2808 39.7214 34.2369 39.75H13.6649C11.621 39.7214 9.67188 38.9929 8.23807 37.7214C6.80426 36.4499 6.00067 34.7377 6.00067 32.9539C6.00067 31.1701 6.80426 29.4578 8.23807 28.1864C9.67188 26.9149 11.621 26.1863 13.6649 26.1577L21.7495 25.9688C22.312 25.9688 22.3605 24.7421 22.3605 24C22.3605 23.2579 22.3942 22.5458 22.4423 21.8423H13.6649C11.621 21.8137 9.67188 21.0851 8.23807 19.8136C6.80426 18.5422 6.00067 16.8299 6.00067 15.0461C6.00067 13.2623 6.80426 11.55 8.23807 10.2786C9.67188 9.00721 11.621 8.27862 13.6649 8.25H34.2369C36.2983 8.25464 38.2733 8.97272 39.7289 10.2467C41.1844 11.5206 42.0011 13.2464 42 15.0452ZM38.8192 32.9548C38.8199 31.893 38.3377 30.8744 37.4786 30.1222C36.6193 29.3703 35.4537 28.9466 34.2369 28.9437H25.1218C24.7915 30.932 24.1624 32.8738 23.2505 34.7188C22.8487 35.5182 22.3339 36.2706 21.7185 36.9586H34.2368C35.452 36.9559 36.6169 36.5332 37.4757 35.7826C38.3345 35.0322 38.8176 34.0154 38.8192 32.9548ZM13.6649 28.9437C12.4458 28.9437 11.2761 29.3663 10.4141 30.1187C9.55205 30.8708 9.06776 31.891 9.06776 32.9548C9.06776 34.0186 9.55205 35.0387 10.4141 35.7909C11.2761 36.5431 12.4453 36.9659 13.6644 36.9659H15.728C17.551 36.9659 19.2777 35.7058 20.3527 33.5935C21.0885 32.1052 21.6118 30.5434 21.9109 28.9437H13.6649ZM9.0818 15.0452C9.08126 16.1071 9.56346 17.1257 10.4226 17.8776C11.2817 18.6296 12.4481 19.0535 13.6649 19.0563H22.7794C23.1095 17.0679 23.7386 15.1261 24.6505 13.2812C25.0525 12.4819 25.5671 11.7294 26.1827 11.0413H13.6644C12.4489 11.044 11.2843 11.4669 10.4254 12.2174C9.56652 12.9678 9.0834 13.9847 9.0818 15.0452ZM27.5604 14.4065C26.8246 15.8948 26.3013 17.4565 26.0023 19.0563H34.2369C35.4559 19.0563 36.625 18.6337 37.4869 17.8815C38.3492 17.1292 38.8334 16.109 38.8334 15.0452C38.8334 13.9815 38.3492 12.9613 37.4869 12.2091C36.625 11.4568 35.4559 11.0343 34.2368 11.0343H32.1731C30.358 11.0343 28.6314 12.2942 27.5604 14.4065Z" fill="white"/>
</g>
<defs>
<linearGradient id="paint0_linear_5751_12084" x1="48" y1="48" x2="0.146965" y2="-0.14607" gradientUnits="userSpaceOnUse">
<stop offset="0.151042" stop-color="#3737A8"/>
<stop offset="0.854167" stop-color="#968CF7"/>
</linearGradient>
<clipPath id="clip0_5751_12084">
<rect width="48" height="48" fill="white"/>
</clipPath>
</defs>
</svg>
