<svg width="260" height="252" viewBox="0 0 260 252" fill="none" xmlns="http://www.w3.org/2000/svg">
<g clip-path="url(#clip0_633_6123)">
<path d="M0 63C0 28.2061 29.1015 0 65 0H195C230.898 0 260 28.2061 260 63V189C260 223.794 230.898 252 195 252H65C29.1015 252 0 223.794 0 189V63Z" fill="url(#paint0_linear_633_6123)"/>
</g>
<path fill-rule="evenodd" clip-rule="evenodd" d="M151.08 136.57C149.88 136.66 143.68 137.03 129.85 137.03C118.85 137.03 111.04 136.7 108.3 136.57C65.79 134.7 34.06 127.3 34.06 118.44C34.06 109.58 65.79 102.19 108.3 100.29V129.2C111.08 129.4 119.04 129.87 130.04 129.87C143.24 129.87 149.85 129.32 151.04 129.21V100.31C193.46 102.2 225.12 109.6 225.12 118.44C225.12 127.28 193.47 134.68 151.04 136.56L151.08 136.57ZM151.08 97.32V71.45H210.28V32H49.1V71.45H108.29V97.31C60.18 99.52 24 109.05 24 120.47C24 131.89 60.18 141.41 108.29 143.63V226.53H151.07V143.6C199.07 141.39 235.19 131.87 235.19 120.46C235.19 109.05 199.1 99.53 151.07 97.31L151.08 97.32Z" fill="white"/>
<defs>
<linearGradient id="paint0_linear_633_6123" x1="260" y1="252" x2="8.12302" y2="-7.87308" gradientUnits="userSpaceOnUse">
<stop stop-color="#50AF95"/>
</linearGradient>
<clipPath id="clip0_633_6123">
<rect width="260" height="252" fill="white"/>
</clipPath>
</defs>
</svg>
