<svg width="260" height="260" viewBox="0 0 260 260" fill="none" xmlns="http://www.w3.org/2000/svg">
<g clip-path="url(#clip0_633_6180)">
<path d="M0 65C0 29.1015 29.1015 0 65 0H195C230.898 0 260 29.1015 260 65V195C260 230.898 230.898 260 195 260H65C29.1015 260 0 230.898 0 195V65Z" fill="url(#paint0_linear_633_6180)"/>
</g>
<path d="M171 153.332C171 130.822 157.522 123.104 130.567 119.889C111.313 117.316 107.462 112.171 107.462 103.166C107.462 94.1607 113.881 88.3738 126.716 88.3738C138.268 88.3738 144.687 92.2328 147.895 101.88C148.538 103.809 150.463 105.095 152.388 105.095H162.656C165.224 105.095 167.149 103.166 167.149 100.594V99.9506C164.582 85.8007 153.029 74.8677 138.268 73.5819V58.1462C138.268 55.5731 136.343 53.6437 133.135 53H123.508C120.94 53 119.015 54.9295 118.372 58.1462V72.9382C99.1185 75.5113 86.9254 88.3738 86.9254 104.453C86.9254 125.677 99.7608 134.037 126.716 137.254C144.687 140.469 150.463 144.328 150.463 154.619C150.463 164.91 141.477 171.984 129.284 171.984C112.596 171.984 106.82 164.908 104.895 155.261C104.254 152.689 102.328 151.402 100.403 151.402H89.4915C86.9254 151.402 85 153.332 85 155.905V156.548C87.5662 172.626 97.8354 184.203 119.015 187.42V202.855C119.015 205.427 120.94 207.356 124.148 208H133.775C136.343 208 138.268 206.071 138.911 202.855V187.42C158.165 184.203 171 170.697 171 153.332Z" fill="white"/>
<path d="M95.581 220.731C45.2342 202.686 19.4148 146.613 38.1345 96.9849C47.8166 69.9154 69.1171 49.2915 95.581 39.6239C98.1634 38.3353 99.4538 36.4018 99.4538 33.1782V24.1556C99.4538 21.577 98.1634 19.6435 95.581 19C94.935 19 93.6445 19 92.9986 19.6435C31.6793 38.9788 -1.88574 104.076 17.4784 165.304C29.0969 201.396 56.8527 229.11 92.9986 240.711C95.581 242 98.1634 240.711 98.8078 238.133C99.4538 237.489 99.4538 236.844 99.4538 235.556V226.532C99.4538 224.598 97.5174 222.021 95.581 220.731ZM164.001 19.6435C161.419 18.355 158.837 19.6435 158.192 22.222C157.546 22.8671 157.546 23.5106 157.546 24.8006V33.8233C157.546 36.4018 159.483 38.9788 161.419 40.2689C211.766 58.3142 237.585 114.387 218.865 164.015C209.183 191.085 187.883 211.708 161.419 221.376C158.837 222.665 157.546 224.598 157.546 227.822V236.844C157.546 239.423 158.837 241.357 161.419 242C162.065 242 163.355 242 164.001 241.357C225.321 222.021 258.886 156.924 239.522 95.6964C227.903 58.9592 199.501 31.2447 164.001 19.6435Z" fill="white"/>
<defs>
<linearGradient id="paint0_linear_633_6180" x1="260" y1="260" x2="0" y2="0" gradientUnits="userSpaceOnUse">
<stop offset="1" stop-color="#2775CA"/>
</linearGradient>
<clipPath id="clip0_633_6180">
<rect width="260" height="260" fill="white"/>
</clipPath>
</defs>
</svg>
